<svg preserveAspectRatio="none" overflow="visible" style="display: block;" width="12" height="17.5" viewBox="0 0 12 17.5" fill="none" xmlns="http://www.w3.org/2000/svg">
<path id="Icon" d="M4.577 9.423C4.19233 9.0385 4 8.56417 4 8V2C4 1.43583 4.19233 0.9615 4.577 0.577C4.9615 0.192334 5.43583 0 6 0C6.56417 0 7.0385 0.192334 7.423 0.577C7.80767 0.9615 8 1.43583 8 2V8C8 8.56417 7.80767 9.0385 7.423 9.423C7.0385 9.80767 6.56417 10 6 10C5.43583 10 4.9615 9.80767 4.577 9.423ZM5.5 17.5V13.9827C3.93333 13.8391 2.625 13.1987 1.575 12.0615C0.525 10.9243 0 9.5705 0 8H1C1 9.38333 1.4875 10.5625 2.4625 11.5375C3.4375 12.5125 4.61667 13 6 13C7.38333 13 8.5625 12.5125 9.5375 11.5375C10.5125 10.5625 11 9.38333 11 8H12C12 9.5705 11.475 10.9243 10.425 12.0615C9.375 13.1987 8.06667 13.8391 6.5 13.9827V17.5H5.5ZM6.7125 8.7125C6.90417 8.52083 7 8.28333 7 8V2C7 1.71667 6.90417 1.47917 6.7125 1.2875C6.52083 1.09583 6.28333 1 6 1C5.71667 1 5.47917 1.09583 5.2875 1.2875C5.09583 1.47917 5 1.71667 5 2V8C5 8.28333 5.09583 8.52083 5.2875 8.7125C5.47917 8.90417 5.71667 9 6 9C6.28333 9 6.52083 8.90417 6.7125 8.7125Z" fill="#61647A"/>
</svg>
