<svg preserveAspectRatio="none" overflow="visible" style="display: block;" width="16" height="16" viewBox="0 0 16 16" fill="none" xmlns="http://www.w3.org/2000/svg">
<path id="Icon" d="M1.6155 16C1.15517 16 0.770833 15.8458 0.4625 15.5375C0.154167 15.2292 0 14.8448 0 14.3845V1.6155C0 1.15517 0.154167 0.770833 0.4625 0.4625C0.770833 0.154167 1.15517 0 1.6155 0H11.577L16 4.423V14.3845C16 14.8448 15.8458 15.2292 15.5375 15.5375C15.2292 15.8458 14.8448 16 14.3845 16H1.6155ZM1.6155 15H14.3845C14.564 15 14.7115 14.9423 14.827 14.827C14.9423 14.7115 15 14.564 15 14.3845V5H11V1H1.6155C1.436 1 1.2885 1.05767 1.173 1.173C1.05767 1.2885 1 1.436 1 1.6155V14.3845C1 14.564 1.05767 14.7115 1.173 14.827C1.2885 14.9423 1.436 15 1.6155 15ZM3.5 12H12.5V11H3.5V12ZM3.5 5H8V4H3.5V5ZM3.5 8.5H12.5V7.5H3.5V8.5Z" fill="#55456E"/>
</svg>
